<svg xmlns="http://www.w3.org/2000/svg" version="1.1" xmlns:xlink="http://www.w3.org/1999/xlink" width="1000" height="1000"><g clip-path="url(#SvgjsClipPath1082)"><rect width="1000" height="1000" fill="#ffffff"></rect><g transform="matrix(1.75,0,0,1.75,208.625,150)"><svg xmlns="http://www.w3.org/2000/svg" version="1.1" xmlns:xlink="http://www.w3.org/1999/xlink" width="333" height="400"><svg width="333" height="400" viewBox="0 0 333 400" fill="none" xmlns="http://www.w3.org/2000/svg">
<path d="M275.017 266.602C280.536 265.793 285.912 264.278 291.077 262.081C297.215 259.475 302.93 255.958 308.055 251.633C308.212 251.508 308.361 251.374 308.511 251.241L312.153 247.921C312.372 247.725 312.584 247.513 312.796 247.301C319.036 240.943 323.911 233.533 327.278 225.284C330.646 217.019 332.349 208.33 332.349 199.437L332.404 27.6599C332.404 16.5459 326.854 7.57399 317.168 3.03699C311.525 0.407987 305.803 0.031 301.438 0H300.693C295.787 0 290.002 0.352973 284.272 3.02197C274.554 7.55797 268.989 16.5299 268.989 27.6519L268.966 95.2639C247.207 74.8799 218.283 62.9419 187.56 62.6829C121.108 62.1249 66.5873 115.742 66.0373 182.193C65.9273 195.01 67.8663 208.33 71.2813 219.193C68.9343 220.198 66.3593 220.881 63.7223 220.857H63.5253C59.1613 220.763 54.9383 218.801 50.5983 214.853C42.8503 207.796 40.1973 197.553 38.0623 189.32L37.2073 186.023C35.6523 180.011 30.7553 175.45 24.6483 174.32C23.7293 174.147 22.8033 174.061 21.8853 174.053C16.7283 174.014 11.7913 176.471 8.73725 180.772C0.111248 192.907 -2.25975 210.135 2.21425 228.039C4.98525 239.161 10.2133 249.805 17.3323 258.808C25.1503 268.666 34.8913 276.013 45.5193 280.071C46.9793 280.628 48.4633 281.13 49.9543 281.562C49.0913 281.593 48.2193 281.609 47.3243 281.601C39.4283 281.538 31.9713 279.835 25.9743 278.462C23.6193 277.92 21.5163 277.441 19.8523 277.104C18.8313 276.9 17.8113 276.79 16.7983 276.782C11.5943 276.735 6.61826 279.247 3.57226 283.618C0.197255 288.453 -0.210752 294.717 2.40325 299.921C7.19925 310.243 17.3163 319.018 31.7363 325.336C44.3503 330.854 59.5853 334.112 74.6563 334.512C75.3943 334.528 76.1473 334.543 76.8933 334.551C92.5913 334.685 107.537 331.741 120.103 326.043C124.522 324.041 128.643 321.694 132.435 319.041C133.361 323.672 134.742 328.311 136.595 332.911C142.026 346.403 151.351 359.488 163.549 370.751C174.719 381.033 187.929 389.361 200.771 394.196C209.091 397.344 216.995 398.969 224.248 399.031C229.727 399.078 234.798 398.215 239.334 396.48C244.664 394.667 248.707 390.131 249.837 384.495C251.124 378.059 248.338 371.497 242.82 367.949C241.462 367.078 239.696 365.987 237.466 364.621C231.642 361.065 224.374 356.623 218.181 350.194C219.366 350.807 220.527 351.348 221.658 351.835C229.248 355.116 237.545 356.819 246.32 356.89C249.711 356.921 253.173 356.701 256.619 356.23C267.906 354.723 278.997 350.689 288.675 344.551C304.209 334.7 314.264 320.541 316.281 305.706C317.113 299.576 314.327 293.516 309.138 290.157C306.54 288.477 303.573 287.622 300.598 287.598C297.624 287.574 294.649 288.375 292.027 290.008L289.178 291.782C282.239 296.114 273.636 301.483 263.66 301.397C263.432 301.397 263.204 301.389 262.977 301.381C257.168 301.185 252.772 299.631 249.546 296.617C247.349 294.576 245.818 291.954 244.75 289.293C255.975 283.658 266.242 275.966 275.017 266.602Z" fill="#14194D"></path>
<path fill-rule="evenodd" clip-rule="evenodd" d="M297.896 305.265C289.859 310.281 277.857 317.777 262.724 317.275C252.378 316.929 244.607 313.523 238.932 308.232C232.441 302.189 228.846 293.782 227.331 284.779C226.664 281.137 226.844 279.709 229.05 278.798C266.915 264.764 291.044 226.429 291.397 184.021C291.876 126.275 245.463 79.0781 187.716 78.5921C129.968 78.1131 82.7698 124.525 82.2838 182.27C82.1658 196.344 84.9208 212.058 89.7948 222.089C91.7888 225.668 89.8418 226.406 88.0608 227.764C80.7838 233.321 72.3858 236.955 63.4528 236.767C55.7608 236.602 47.8248 233.611 40.1248 226.602C28.8688 216.343 25.2898 202.513 22.8878 193.259L22.0318 189.962C15.7918 198.753 14.8258 211.477 17.9818 224.106C20.1638 232.858 24.3558 241.539 30.1328 248.846C35.8388 256.044 43.0918 261.891 51.4908 265.102C62.7468 269.403 76.3018 268.979 91.2398 260.745C92.4328 260.023 93.9078 259.819 95.3208 260.322C97.8328 261.216 99.1748 264.026 98.2958 266.585C96.1608 272.88 92.5268 278.743 87.0638 283.712C82.2208 288.123 75.9258 291.804 67.9188 294.442C50.2428 300.258 33.6648 296.474 22.7068 293.971C20.4068 293.445 18.4138 292.989 16.9458 292.691L17.0008 292.778C20.1168 299.865 28.0128 306.097 38.4288 310.658C49.0098 315.289 62.0478 318.146 75.3678 318.491C88.6408 318.844 102.158 316.717 113.806 311.435C125.714 306.042 135.682 297.267 141.263 284.387L141.342 284.175C142.354 281.64 145.172 280.415 147.661 281.428L147.668 281.436L147.684 281.443V281.459C150.102 282.448 151.326 285.235 150.416 287.738C145.533 301.066 146.719 314.504 151.695 326.882C156.515 338.86 164.851 349.887 174.67 358.945C184.537 368.035 195.879 375.107 206.695 379.188C217.331 383.207 227.276 384.259 234.372 381.307L234.466 381.292C233.21 380.483 231.46 379.408 229.435 378.168C219.796 372.281 205.251 363.388 196.444 346.787C192.464 339.276 190.408 332.196 189.913 325.61C189.34 318.177 190.722 311.403 193.461 305.344V305.352C194.003 304.127 195.047 303.138 196.405 302.707C198.956 301.89 201.664 303.319 202.488 305.901C207.645 322.424 217.182 332.306 228.281 337.109C236.531 340.673 245.746 341.552 254.772 340.335C263.925 339.119 272.865 335.783 280.408 330.995C291.287 324.088 299.286 314.221 300.746 303.484L297.896 305.265Z" fill="#84CEFF"></path>
<path d="M314.122 184.836C313.439 197.191 309.625 205.66 305.802 211.241C305.119 212.253 304.413 213.179 303.745 214.011C303.078 214.843 302.419 215.589 301.799 216.264C301.501 216.602 301.194 216.9 300.912 217.19H300.888C296.814 221.295 292.584 224.309 288.424 226.484C287.686 226.892 286.94 227.245 286.186 227.598C284.507 228.36 282.851 229.003 281.234 229.506C281.21 229.529 281.21 229.529 281.21 229.529C275.88 231.256 270.857 231.829 266.555 231.813C266.555 231.813 266.006 238.006 263.274 242.582C260.684 246.93 256.296 250.761 256.296 250.761L267.85 250.855C267.85 250.855 266.634 252.535 264.75 254.607C262.615 257.017 260.794 258.571 260.794 258.571L213.879 258.288C198.51 258.28 185.817 245.329 185.809 229.662V227.63C178.054 229.804 155.597 228.87 155.597 228.87C142.481 228.878 130.582 223.446 121.971 214.655L121.947 214.631C113.337 205.856 108.007 193.729 107.999 180.37C108.015 167.011 113.329 154.876 121.963 146.109V146.085H121.987C130.597 137.318 142.489 131.902 155.613 131.894L220.676 131.902L266.343 131.949C270.723 131.949 274.962 132.538 278.973 133.684C281.116 134.28 283.204 135.01 285.229 135.905V135.709C285.229 135.709 285.229 135.709 285.252 135.733C285.81 135.976 292.45 138.974 299.248 145.622C307.113 153.322 315.174 165.928 314.122 184.836Z" fill="#14194D"></path>
<path fill-rule="evenodd" clip-rule="evenodd" d="M211.129 180.974C211.145 178.925 212.134 176.539 213.406 175.157L213.414 175.142C214.913 173.525 216.914 172.732 218.932 172.732H219.065H219.104H219.144H219.293C221.31 172.771 223.272 173.611 224.732 175.244C225.988 176.649 226.938 178.988 226.922 181.107C226.812 194.443 230.988 201.868 237.746 208.869C244.497 215.855 253.877 220.235 264.277 220.321C274.693 220.407 284.136 216.185 291.012 209.309C297.872 202.425 302.174 192.849 302.26 182.245C302.346 171.633 298.225 162.002 291.475 155.009C284.709 147.984 275.321 143.604 264.921 143.518L173.759 142.756C163.382 142.67 153.908 146.893 147.048 153.784L147.024 153.8C140.164 160.676 135.886 170.236 135.799 180.848C135.713 191.452 139.842 201.091 146.584 208.092C153.335 215.078 162.731 219.458 173.131 219.544C183.531 219.63 192.99 215.408 199.866 208.532C206.718 201.664 211.02 194.309 211.129 180.974Z" fill="white"></path>
<path fill-rule="evenodd" clip-rule="evenodd" d="M280.08 170.046C285.904 170.093 290.59 174.968 290.543 180.933C290.496 186.898 285.724 191.694 279.899 191.647C274.083 191.6 269.389 186.726 269.436 180.76L279.986 180.847L280.08 170.046Z" fill="#14194D"></path>
<path fill-rule="evenodd" clip-rule="evenodd" d="M193.323 169.326C199.147 169.373 203.841 174.248 203.794 180.213C203.747 186.178 198.975 190.974 193.143 190.927C187.334 190.88 182.64 186.005 182.687 180.04L193.229 180.127L193.323 169.326Z" fill="#14194D"></path>
<path fill-rule="evenodd" clip-rule="evenodd" d="M225.771 215.205C235.489 215.283 243.299 222.34 243.228 230.95C243.157 239.568 235.23 246.483 225.512 246.405C215.802 246.326 207.985 239.27 208.063 230.66C208.134 222.049 216.062 215.126 225.771 215.205Z" fill="white"></path>
<path d="M316.676 199.385C316.676 206.371 315.271 213.074 312.791 219.204C310.193 225.57 306.378 231.292 301.7 236.072L298.05 239.384C294.18 242.657 289.816 245.349 285.122 247.335C281.017 249.093 275.836 250.922 271.951 250.891L256.307 250.757C256.77 250.42 257.226 250.051 257.649 249.651C258.089 249.274 258.513 248.881 258.89 248.489C259.29 248.097 259.651 247.696 259.996 247.304C260.357 246.911 260.703 246.495 261.001 246.079V246.056C261.299 245.679 261.582 245.326 261.81 244.949C261.912 244.831 261.99 244.714 262.053 244.596C262.296 244.258 262.516 243.905 262.697 243.568C263.427 242.398 263.992 241.213 264.478 240.036C264.722 239.463 264.949 238.866 265.13 238.285C265.373 237.587 265.577 236.912 265.742 236.26C266.15 234.627 266.401 233.12 266.558 231.81C276.017 231.825 289.039 229.11 300.907 217.187C305.507 212.548 313.128 202.799 314.117 184.825C316.111 149.104 285.538 135.855 285.224 135.713L285.255 27.592C285.263 22.216 287.579 19.1941 291.292 17.4511C294.11 16.1401 297.438 15.9131 300.978 15.9211C304.565 15.9131 307.862 16.1401 310.703 17.4591C314.408 19.2021 316.739 22.2311 316.731 27.6241L316.676 199.385Z" fill="#84CEFF"></path>
<path fill-rule="evenodd" clip-rule="evenodd" d="M140.204 214.735L140.181 214.727C131.648 205.991 126.437 193.99 126.546 180.803C126.656 167.625 132.072 155.702 140.746 147.107L140.769 147.084C141.531 146.338 142.3 145.616 143.116 144.917C137.465 146.754 132.402 149.894 128.281 153.975C121.397 160.78 117.112 170.239 117.025 180.717C116.939 191.188 121.075 200.717 127.818 207.624C131.868 211.768 136.86 214.978 142.465 216.909C141.688 216.203 140.926 215.481 140.204 214.735Z" fill="white"></path>
</svg></svg></g></g><defs><clipPath id="SvgjsClipPath1082"><rect width="1000" height="1000" x="0" y="0" rx="250" ry="250"></rect></clipPath></defs></svg>